<?xml version="1.0" encoding="UTF-8" standalone="no"?>
<!-- Created with Inkscape (http://www.inkscape.org/) -->

<svg
   xmlns:dc="http://purl.org/dc/elements/1.1/"
   xmlns:cc="http://creativecommons.org/ns#"
   xmlns:rdf="http://www.w3.org/1999/02/22-rdf-syntax-ns#"
   xmlns:svg="http://www.w3.org/2000/svg"
   xmlns="http://www.w3.org/2000/svg"
   xmlns:sodipodi="http://sodipodi.sourceforge.net/DTD/sodipodi-0.dtd"
   xmlns:inkscape="http://www.inkscape.org/namespaces/inkscape"
   width="744.09448"
   height="1052.3622"
   id="svg2"
   version="1.1"
   inkscape:version="0.91pre1_64bit "
   viewBox="0 0 744.09448 1052.3622"
   sodipodi:docname="projectbot_logo.svg">
  <defs
     id="defs4" />
  <sodipodi:namedview
     id="base"
     pagecolor="#ffffff"
     bordercolor="#666666"
     borderopacity="1.0"
     inkscape:pageopacity="0.0"
     inkscape:pageshadow="2"
     inkscape:zoom="1.3931276"
     inkscape:cx="351.72161"
     inkscape:cy="281.20859"
     inkscape:document-units="px"
     inkscape:current-layer="layer1"
     showgrid="false"
     inkscape:window-width="1920"
     inkscape:window-height="1017"
     inkscape:window-x="-8"
     inkscape:window-y="-8"
     inkscape:window-maximized="1" />
  <metadata
     id="metadata7">
    <rdf:RDF>
      <cc:Work
         rdf:about="">
        <dc:format>image/svg+xml</dc:format>
        <dc:type
           rdf:resource="http://purl.org/dc/dcmitype/StillImage" />
        <dc:title></dc:title>
      </cc:Work>
    </rdf:RDF>
  </metadata>
  <g
     inkscape:label="Layer 1"
     inkscape:groupmode="layer"
     id="layer1">
    <path
       style="font-style:normal;font-weight:normal;font-size:40px;line-height:125%;font-family:sans-serif;letter-spacing:0px;word-spacing:0px;fill:#81d4fa;fill-opacity:1;stroke:none;stroke-width:1px;stroke-linecap:butt;stroke-linejoin:miter;stroke-opacity:1"
       d="m 232.48483,160.39173 c -12.82472,0 -23.87688,2.55451 -33.15648,7.66351 -9.17534,5.00475 -16.78672,12.72046 -22.83413,23.14699 l 0,-26.58769 -28.93368,0 0,202.66891 28.93368,-16.71897 0,-37.05876 c 6.04741,10.42653 13.65879,18.19429 22.83413,23.3033 9.2796,5.00474 20.33176,7.50712 33.15648,7.50712 21.27017,0 38.52605,-8.44553 51.76781,-25.33651 13.34601,-16.89097 20.01898,-39.09955 20.01898,-66.62565 0,-27.52611 -6.67297,-49.73469 -20.01898,-66.62566 -13.24176,-16.89106 -30.49764,-25.33659 -51.76781,-25.33659 z m -7.03795,24.08532 c 15.22275,8e-5 27.16119,6.04742 35.81524,18.14224 8.7583,11.99057 13.13742,28.56877 13.13742,49.73469 0,21.16591 -4.37912,37.79624 -13.13742,49.89106 -8.65405,11.99049 -20.59249,17.98578 -35.81524,17.98578 -15.22276,0 -27.21333,-5.99529 -35.97163,-17.98578 -8.65405,-12.09482 -12.98103,-28.72515 -12.98103,-49.89106 0,-21.16592 4.32698,-37.74412 12.98103,-49.73469 8.7583,-12.09482 20.74887,-18.14224 35.97163,-18.14224 z"
       id="text3337"
       inkscape:connector-curvature="0"
       inkscape:export-xdpi="300"
       inkscape:export-ydpi="300"
       sodipodi:nodetypes="sccccccccscscsscscscscs" />
    <path
       style="font-style:normal;font-weight:normal;font-size:40px;line-height:125%;font-family:sans-serif;letter-spacing:0px;word-spacing:0px;fill:#666666;fill-opacity:1;stroke:none;stroke-width:1px;stroke-linecap:butt;stroke-linejoin:miter;stroke-opacity:1"
       d="m 176.49422,369.68016 -28.93368,16.70335 0,175.93666 28.93368,0 0,-26.5877 c 6.04741,10.42661 13.65879,18.14225 22.83413,23.14699 9.2796,5.10901 20.33176,7.66351 33.15648,7.66351 21.27017,0 38.52605,-8.44553 51.76781,-25.33651 13.34601,-16.89105 20.01898,-39.09963 20.01898,-66.62573 0,-27.5261 -6.67297,-49.7346 -20.01898,-66.62566 -13.24176,-16.89098 -30.49764,-25.3365 -51.76781,-25.3365 -12.82472,0 -23.87688,2.50237 -33.15648,7.50711 -9.17534,5.10901 -16.78672,12.87677 -22.83413,23.30338 z m 48.95266,37.02372 c 15.22275,0 27.16119,5.99529 35.81524,17.98578 8.7583,12.09483 13.13742,28.72516 13.13742,49.89107 0,21.16591 -4.37912,37.74419 -13.13742,49.73468 -8.65405,12.09483 -20.59249,18.14224 -35.81524,18.14224 -15.22276,0 -27.21333,-6.04741 -35.97163,-18.14224 -8.65405,-11.99049 -12.98103,-28.56877 -12.98103,-49.73468 0,-21.16591 4.32698,-37.79624 12.98103,-49.89107 8.7583,-11.99049 20.74887,-17.98578 35.97163,-17.98578 z"
       id="path4174"
       inkscape:connector-curvature="0"
       inkscape:export-xdpi="300"
       inkscape:export-ydpi="300"
       sodipodi:nodetypes="ccccccscscscccscscscscs" />
    <path
       inkscape:export-ydpi="300"
       inkscape:export-xdpi="300"
       inkscape:connector-curvature="0"
       id="path4178"
       d="M 431.48767,363.99905 402.598,380.677 l 0,163.68727 28.88967,0 0,-26.54725 c 6.0382,10.41075 13.63801,18.11465 22.79939,23.11177 9.26549,5.10124 20.30084,7.65186 33.10604,7.65186 21.23782,0 38.46745,-8.43269 51.68906,-25.29797 13.32571,-16.86536 19.98853,-39.04016 19.98853,-66.52439 0,-27.48422 -6.66282,-49.65894 -19.98853,-66.52429 -13.22161,-16.8653 -30.45124,-25.29797 -51.68906,-25.29797 -12.8052,0 -23.84055,2.49856 -33.10604,7.49569 -9.16138,5.10124 -16.76119,12.85719 -22.79939,23.26794 l 0,-31.70061 z m 48.87818,24.98566 c 15.1996,0 27.11988,5.98616 35.76076,17.95842 8.74499,12.07642 13.11744,28.68146 13.11744,49.81516 0,21.13373 -4.37245,37.68679 -13.11744,49.65903 -8.64088,12.07644 -20.56116,18.11465 -35.76076,18.11465 -15.19959,0 -27.17192,-6.03821 -35.9169,-18.11465 -8.64088,-11.97224 -12.96128,-28.5253 -12.96128,-49.65903 0,-21.1337 4.3204,-37.73874 12.96128,-49.81516 8.74498,-11.97226 20.71731,-17.95842 35.9169,-17.95842 z"
       style="font-style:normal;font-weight:normal;font-size:40px;line-height:125%;font-family:sans-serif;letter-spacing:0px;word-spacing:0px;fill:#666666;fill-opacity:1;stroke:none;stroke-width:1px;stroke-linecap:butt;stroke-linejoin:miter;stroke-opacity:1" />
    <path
       inkscape:export-ydpi="300"
       inkscape:export-xdpi="300"
       inkscape:connector-curvature="0"
       id="path4176"
       d="m 487.2839,152.27064 c -12.82472,0 -23.87688,2.55451 -33.15648,7.66351 -9.17534,5.00475 -16.78672,12.72046 -22.83413,23.14699 l 0,-26.58769 -28.93368,0 0,194.66891 28.93368,-16.71897 0,-29.05876 c 6.04741,10.42653 13.65879,18.19429 22.83413,23.3033 9.2796,5.00474 20.33176,7.50712 33.15648,7.50712 21.27017,0 38.52605,-8.44553 51.76781,-25.33651 13.34601,-16.89097 20.01898,-39.09955 20.01898,-66.62565 0,-27.52611 -6.67297,-49.73469 -20.01898,-66.62566 -13.24176,-16.89106 -30.49764,-25.33659 -51.76781,-25.33659 z m -7.03795,24.08532 c 15.22275,8e-5 27.16119,6.04742 35.81524,18.14224 8.7583,11.99057 13.13742,28.56877 13.13742,49.73469 0,21.16591 -4.37912,37.79624 -13.13742,49.89106 -8.65405,11.99049 -20.59249,17.98578 -35.81524,17.98578 -15.22276,0 -27.21333,-5.99529 -35.97163,-17.98578 -8.65405,-12.09482 -12.98103,-28.72515 -12.98103,-49.89106 0,-21.16592 4.32698,-37.74412 12.98103,-49.73469 8.7583,-12.09482 20.74887,-18.14224 35.97163,-18.14224 z"
       style="font-style:normal;font-weight:normal;font-size:40px;line-height:125%;font-family:sans-serif;letter-spacing:0px;word-spacing:0px;fill:#81d4fa;fill-opacity:1;stroke:none;stroke-width:1px;stroke-linecap:butt;stroke-linejoin:miter;stroke-opacity:1" />
    <path
       sodipodi:nodetypes="ccccccscscscccscscscscs"
       inkscape:export-ydpi="300"
       inkscape:export-xdpi="300"
       inkscape:connector-curvature="0"
       id="path4186"
       d="m 296.57658,779.64253 -28.93368,16.70335 0,195.93668 28.93368,0 0,-26.58772 c 6.04741,10.42662 13.65879,18.14222 22.83413,23.14702 9.2796,5.109 20.33176,7.6635 33.15648,7.6635 21.27017,0 38.52605,-8.4455 51.76781,-25.3365 13.34601,-16.89108 20.01898,-39.09966 20.01898,-66.62576 0,-27.5261 -6.67297,-49.7346 -20.01898,-66.62566 -13.24176,-16.89098 -30.49764,-25.3365 -51.76781,-25.3365 -12.82472,0 -23.87688,2.50237 -33.15648,7.50711 -9.17534,5.10901 -16.78672,12.87677 -22.83413,23.30338 z m 48.95266,57.02372 c 15.22275,0 27.16119,5.99529 35.81524,17.98578 8.7583,12.09483 13.13742,28.72516 13.13742,49.89107 0,21.16591 -4.37912,37.74419 -13.13742,49.73468 -8.65405,12.09483 -20.59249,18.14228 -35.81524,18.14228 -15.22276,0 -27.21333,-6.04745 -35.97163,-18.14228 -8.65405,-11.99049 -12.98103,-28.56877 -12.98103,-49.73468 0,-21.16591 4.32698,-37.79624 12.98103,-49.89107 8.7583,-11.99049 20.74887,-17.98578 35.97163,-17.98578 z"
       style="font-style:normal;font-weight:normal;font-size:40px;line-height:125%;font-family:sans-serif;letter-spacing:0px;word-spacing:0px;fill:#666666;fill-opacity:1;stroke:none;stroke-width:1px;stroke-linecap:butt;stroke-linejoin:miter;stroke-opacity:1" />
    <path
       sodipodi:nodetypes="sccccccccscscsscscscscs"
       inkscape:export-ydpi="300"
       inkscape:export-xdpi="300"
       inkscape:connector-curvature="0"
       id="path4184"
       d="m 288.07331,721.90541 c -12.82472,0 -23.87688,2.55451 -33.15648,7.66351 -9.17534,5.00475 -16.78672,12.72046 -22.83413,23.14699 l 0,-26.58769 -28.93368,0 0,222.66891 28.93368,-16.71897 0,-57.05876 c 6.04741,10.42653 13.65879,18.19429 22.83413,23.3033 9.2796,5.00474 20.33176,7.50712 33.15648,7.50712 21.27017,0 38.52605,-8.44553 51.76781,-25.33651 13.34601,-16.89097 20.01898,-39.09955 20.01898,-66.62565 0,-27.52611 -6.67297,-49.73469 -20.01898,-66.62566 -13.24176,-16.89106 -30.49764,-25.33659 -51.76781,-25.33659 z m -7.03795,24.08532 c 15.22275,8e-5 27.16119,6.04742 35.81524,18.14224 8.7583,11.99057 13.13742,28.56877 13.13742,49.73469 0,21.16591 -4.37912,37.79624 -13.13742,49.89106 -8.65405,11.99049 -20.59249,17.98578 -35.81524,17.98578 -15.22276,0 -27.21333,-5.99529 -35.97163,-17.98578 -8.65405,-12.09482 -12.98103,-28.72515 -12.98103,-49.89106 0,-21.16592 4.32698,-37.74412 12.98103,-49.73469 8.7583,-12.09482 20.74887,-18.14224 35.97163,-18.14224 z"
       style="font-style:normal;font-weight:normal;font-size:40px;line-height:125%;font-family:sans-serif;letter-spacing:0px;word-spacing:0px;fill:#81d4fa;fill-opacity:1;stroke:none;stroke-width:1px;stroke-linecap:butt;stroke-linejoin:miter;stroke-opacity:1" />
  </g>
</svg>
